<?xml version="1.0" encoding="UTF-8"?>
<svg width="177px" height="150px" viewBox="0 0 177 150" version="1.1" xmlns="http://www.w3.org/2000/svg" xmlns:xlink="http://www.w3.org/1999/xlink">
    <title>Logos</title>
    <g id="Logos" stroke="none" stroke-width="1" fill="none" fillRule="evenodd">
        <g id="adobe-xd-1" transform="translate(35.000000, 23.000000)" fillRule="nonzero">
            <path d="M88.87536,105 L19.12464,105 C8.54928,105 0,96.4750769 0,85.9298462 L0,19.0701538 C0,8.52492308 8.54928,0 19.12464,0 L88.87536,0 C99.45072,0 108,8.52492308 108,19.0701538 L108,85.9298462 C108,96.4750769 99.45072,105 88.87536,105 Z" id="Path" fill="#FF26BE"></path>
            <path d="M85.8661662,101 L20.1764293,101 C11.2646329,101 4,93.7634471 4,84.8860975 L4,22.1139025 C4,13.2365529 11.2646329,6 20.1764293,6 L85.8233827,6 C94.7822409,6 102,13.2365529 102,22.1139025 L102,84.8434794 C102.042595,93.7634471 94.7779626,101 85.8661662,101 L85.8661662,101 Z" id="Path" fill="#2E001F"></path>
        </g>
    </g>
</svg>